<svg xmlns="http://www.w3.org/2000/svg" width="206.667" height="319.667" viewBox="0 0 206.667 319.667"><path fill="#C8C8C8" d="M157.506 80.538l-51.977-51.977a6.205 6.205 0 0 1 0-8.811l16.248-16.248a6.205 6.205 0 0 1 8.811 0l72.63 72.63a6.205 6.205 0 0 1 0 8.811l-72.63 72.63a6.205 6.205 0 0 1-8.811 0l-16.248-16.249a6.204 6.204 0 0 1 0-8.81l51.977-51.976z"/><path fill="#F2F2F2" d="M157.506 239.279l-51.977-51.977a6.205 6.205 0 0 1 0-8.811l16.248-16.248a6.205 6.205 0 0 1 8.811 0l72.63 72.631a6.205 6.205 0 0 1 0 8.811l-72.63 72.629a6.205 6.205 0 0 1-8.811 0l-16.248-16.248a6.205 6.205 0 0 1 0-8.811l51.977-51.976z"/><path fill="#C8C8C8" d="M48.882 80.538l51.977 51.977a6.205 6.205 0 0 1 0 8.811L84.61 157.573a6.205 6.205 0 0 1-8.811 0l-72.63-72.63a6.205 6.205 0 0 1 0-8.811L75.8 3.502a6.205 6.205 0 0 1 8.811 0l16.248 16.249a6.204 6.204 0 0 1 0 8.81L48.882 80.538z"/><path fill="#F2F2F2" d="M48.882 239.279l51.977 51.977a6.205 6.205 0 0 1 0 8.811L84.61 316.314a6.205 6.205 0 0 1-8.811 0l-72.63-72.629a6.205 6.205 0 0 1 0-8.811l72.631-72.63a6.205 6.205 0 0 1 8.811 0l16.248 16.249a6.204 6.204 0 0 1 0 8.81l-51.977 51.976z"/></svg>